<svg xmlns="http://www.w3.org/2000/svg" viewBox="0 0 200 200" width="200" height="200" fill="none" stroke-linecap="round" stroke-linejoin="round"><line x1="35.0" y1="57.5" x2="100.0" y2="36.25" stroke="#D7BDE2" stroke-width="2.75" /><line x1="35.0" y1="57.5" x2="100.0" y2="78.75" stroke="#D7BDE2" stroke-width="2.75" /><line x1="35.0" y1="57.5" x2="100.0" y2="121.25" stroke="#D7BDE2" stroke-width="2.75" /><line x1="35.0" y1="57.5" x2="100.0" y2="163.75" stroke="#D7BDE2" stroke-width="2.75" /><line x1="35.0" y1="100.0" x2="100.0" y2="36.25" stroke="#D7BDE2" stroke-width="2.75" /><line x1="35.0" y1="100.0" x2="100.0" y2="78.75" stroke="#D7BDE2" stroke-width="2.75" /><line x1="35.0" y1="100.0" x2="100.0" y2="121.25" stroke="#D7BDE2" stroke-width="2.75" /><line x1="35.0" y1="100.0" x2="100.0" y2="163.75" stroke="#D7BDE2" stroke-width="2.75" /><line x1="35.0" y1="142.5" x2="100.0" y2="36.25" stroke="#D7BDE2" stroke-width="2.75" /><line x1="35.0" y1="142.5" x2="100.0" y2="78.75" stroke="#D7BDE2" stroke-width="2.75" /><line x1="35.0" y1="142.5" x2="100.0" y2="121.25" stroke="#D7BDE2" stroke-width="2.75" /><line x1="35.0" y1="142.5" x2="100.0" y2="163.75" stroke="#D7BDE2" stroke-width="2.75" /><line x1="100.0" y1="36.25" x2="165.0" y2="57.5" stroke="#D7BDE2" stroke-width="2.75" /><line x1="100.0" y1="36.25" x2="165.0" y2="100.0" stroke="#D7BDE2" stroke-width="2.75" /><line x1="100.0" y1="36.25" x2="165.0" y2="142.5" stroke="#D7BDE2" stroke-width="2.75" /><line x1="100.0" y1="78.75" x2="165.0" y2="57.5" stroke="#D7BDE2" stroke-width="2.75" /><line x1="100.0" y1="78.75" x2="165.0" y2="100.0" stroke="#D7BDE2" stroke-width="2.75" /><line x1="100.0" y1="78.75" x2="165.0" y2="142.5" stroke="#D7BDE2" stroke-width="2.75" /><line x1="100.0" y1="121.25" x2="165.0" y2="57.5" stroke="#D7BDE2" stroke-width="2.75" /><line x1="100.0" y1="121.25" x2="165.0" y2="100.0" stroke="#D7BDE2" stroke-width="2.75" /><line x1="100.0" y1="121.25" x2="165.0" y2="142.5" stroke="#D7BDE2" stroke-width="2.75" /><line x1="100.0" y1="163.75" x2="165.0" y2="57.5" stroke="#D7BDE2" stroke-width="2.75" /><line x1="100.0" y1="163.75" x2="165.0" y2="100.0" stroke="#D7BDE2" stroke-width="2.75" /><line x1="100.0" y1="163.75" x2="165.0" y2="142.5" stroke="#D7BDE2" stroke-width="2.75" /><circle cx="35.0" cy="57.5" r="11.25" fill="#8E44AD" stroke="#FFFFFF" stroke-width="3.125"/><circle cx="35.0" cy="100.0" r="11.25" fill="#8E44AD" stroke="#FFFFFF" stroke-width="3.125"/><circle cx="35.0" cy="142.5" r="11.25" fill="#8E44AD" stroke="#FFFFFF" stroke-width="3.125"/><circle cx="100.0" cy="36.25" r="11.25" fill="#8E44AD" stroke="#FFFFFF" stroke-width="3.125"/><circle cx="100.0" cy="78.75" r="11.25" fill="#8E44AD" stroke="#FFFFFF" stroke-width="3.125"/><circle cx="100.0" cy="121.25" r="11.25" fill="#8E44AD" stroke="#FFFFFF" stroke-width="3.125"/><circle cx="100.0" cy="163.75" r="11.25" fill="#8E44AD" stroke="#FFFFFF" stroke-width="3.125"/><circle cx="165.0" cy="57.5" r="11.25" fill="#8E44AD" stroke="#FFFFFF" stroke-width="3.125"/><circle cx="165.0" cy="100.0" r="11.25" fill="#8E44AD" stroke="#FFFFFF" stroke-width="3.125"/><circle cx="165.0" cy="142.5" r="11.25" fill="#8E44AD" stroke="#FFFFFF" stroke-width="3.125"/></svg>