<svg xmlns="http://www.w3.org/2000/svg" viewBox="0 0 200 200" width="200" height="200" fill="none" stroke-linecap="round" stroke-linejoin="round"><rect x="36" y="16" width="128" height="168" rx="10" fill="#F3F6FC" stroke="#203768" stroke-width="4" /><rect x="46" y="28" width="108" height="30" rx="5" fill="#FFFFFF" stroke="#203768" stroke-width="4" /><line x1="56" y1="43" x2="110" y2="43" stroke="#A6CAEC" stroke-width="5" /><circle cx="128" cy="43" r="4" fill="#27AE60" stroke="none" stroke-width="0"/><circle cx="142" cy="43" r="4" fill="#0E5DB7" stroke="none" stroke-width="0"/><rect x="46" y="68" width="108" height="30" rx="5" fill="#FFFFFF" stroke="#203768" stroke-width="4" /><line x1="56" y1="83" x2="110" y2="83" stroke="#A6CAEC" stroke-width="5" /><circle cx="128" cy="83" r="4" fill="#27AE60" stroke="none" stroke-width="0"/><circle cx="142" cy="83" r="4" fill="#0E5DB7" stroke="none" stroke-width="0"/><rect x="46" y="108" width="108" height="30" rx="5" fill="#FFFFFF" stroke="#203768" stroke-width="4" /><line x1="56" y1="123" x2="110" y2="123" stroke="#A6CAEC" stroke-width="5" /><circle cx="128" cy="123" r="4" fill="#0E5DB7" stroke="none" stroke-width="0"/><circle cx="142" cy="123" r="4" fill="#0E5DB7" stroke="none" stroke-width="0"/><rect x="46" y="148" width="108" height="30" rx="5" fill="#FFFFFF" stroke="#203768" stroke-width="4" /><line x1="56" y1="163" x2="110" y2="163" stroke="#A6CAEC" stroke-width="5" /><circle cx="128" cy="163" r="4" fill="#27AE60" stroke="none" stroke-width="0"/><circle cx="142" cy="163" r="4" fill="#0E5DB7" stroke="none" stroke-width="0"/></svg>